<?xml version="1.0" standalone="no"?>
<!DOCTYPE svg PUBLIC "-//W3C//DTD SVG 20010904//EN"
 "http://www.w3.org/TR/2001/REC-SVG-20010904/DTD/svg10.dtd">
<svg version="1.0" xmlns="http://www.w3.org/2000/svg"
 width="280.000000pt" height="280.000000pt" viewBox="0 0 280.000000 280.000000"
 preserveAspectRatio="xMidYMid meet">
<metadata>
Created by potrace 1.14, written by Peter Selinger 2001-2017
</metadata>
<g transform="translate(0.000000,280.000000) scale(0.100000,-0.100000)"
fill="#000000" stroke="none">
<path d="M64 2732 c-12 -2 -30 -12 -40 -24 -18 -19 -19 -42 -19 -330 -1 -288
1 -312 18 -332 18 -21 26 -21 338 -24 227 -2 319 0 319 8 0 6 4 9 9 6 9 -6 19
12 28 44 6 24 5 588 -1 608 -14 42 -43 46 -344 47 -158 0 -297 -1 -308 -3z"/>
<path d="M1083 2728 c-15 -4 -32 -15 -37 -25 -7 -11 -11 -130 -12 -326 -1
-299 0 -309 21 -332 l21 -25 311 0 c291 0 312 1 334 19 l24 19 1 314 c0 245
-2 317 -13 333 -7 11 -13 15 -13 10 0 -6 -4 -4 -9 4 -8 12 -60 15 -305 15
-163 1 -308 -2 -323 -6z"/>
<path d="M2079 2711 l-25 -26 0 -312 c1 -306 1 -313 22 -334 21 -21 28 -21
332 -21 324 0 344 2 358 44 4 13 7 159 7 326 0 298 0 304 -22 325 -21 22 -27
22 -334 23 l-312 1 -26 -26z"/>
<path d="M43 1738 c-41 -20 -44 -48 -41 -366 3 -296 3 -302 25 -324 22 -21 26
-22 320 -22 164 0 310 3 324 7 51 13 54 37 54 367 l-1 302 -27 24 -28 24 -302
-1 c-190 0 -310 -4 -324 -11z"/>
<path d="M1074 1738 c-41 -19 -44 -46 -44 -358 0 -298 0 -299 23 -326 l23 -27
314 0 313 0 23 26 c23 27 23 28 22 335 0 319 -1 327 -43 349 -26 14 -602 15
-631 1z"/>
<path d="M2114 1738 c-3 -5 -9 -6 -14 -3 -5 3 -17 -7 -27 -22 -17 -26 -18 -50
-17 -323 1 -162 5 -304 9 -315 13 -43 30 -45 351 -46 304 0 306 0 330 22 l24
22 0 312 c0 253 -3 315 -14 331 -8 10 -19 20 -25 20 -6 1 -14 3 -18 4 -20 7
-595 5 -599 -2z"/>
<path d="M31 754 c-12 -9 -19 -19 -16 -24 3 -5 2 -11 -3 -14 -10 -6 -9 -593 1
-623 4 -11 15 -25 25 -29 19 -9 569 -16 620 -8 62 9 64 21 64 331 -1 153 -1
291 -1 306 -1 16 -12 39 -26 53 l-25 25 -308 -1 c-259 -1 -313 -4 -331 -16z"/>
<path d="M1055 745 l-25 -24 0 -308 c0 -288 2 -310 20 -333 l19 -25 320 0 319
0 21 23 c19 23 20 37 20 334 l0 310 -24 24 -24 24 -311 0 -311 0 -24 -25z"/>
<path d="M2092 763 c-34 -14 -38 -53 -38 -361 l1 -304 29 -24 28 -25 309 3
c295 3 309 4 329 23 20 20 20 32 21 334 0 311 0 313 -22 337 l-22 24 -311 -1
c-171 0 -317 -3 -324 -6z"/>
</g>
</svg>
